<?xml version="1.0"?>
<svg width="3000" height="1024" xmlns="http://www.w3.org/2000/svg" xmlns:svg="http://www.w3.org/2000/svg" class="icon" version="1.1">
 <g class="layer">
  <title>Layer 1</title>
  <path class="selected" d="m430.72,196.1c-73.84,20.35 -147.29,61.57 -209.73,122.96c-130.54,128.39 -172.42,304.05 -114.54,431.6c0.09,0.25 0.04,0.45 0.15,0.7c22.59,58.18 -7.36,106.43 7.87,121.39c15.21,14.95 76.08,-14.96 121.9,7.06c0.49,0.26 0.83,0.17 1.32,0.36c129.77,57.56 308.89,16.54 439.73,-112.15c62.42,-61.46 104.32,-133.71 124.99,-206.31l-371.69,-365.61z" data-spm-anchor-id="a313x.search_index.0.i0.67af3a816HxXY3" fill="#E65100" id="svg_1"/>
  <path class="selected" d="m501.46,492.27l-0.17,-0.19c-117.29,-115.33 -176.32,-201.3 -175.51,-255.43c0.32,-19.6 8.45,-29.2 11.95,-32.44c91.2,-89.71 215.87,-70.58 341.56,53.05a503.77,503.77 0 0 1 28.8,30.7c6.55,4.8 25.09,18.84 46.68,40.06c109.7,107.91 124.31,226.09 40.17,324.25c-3.35,3.78 -12.59,11.88 -31.68,12.54c-53.65,1.9 -141.69,-56.15 -261.76,-172.54l-0.04,0z" data-spm-anchor-id="a313x.search_index.0.i2.67af3a816HxXY3" fill="#FFA726" id="svg_2"/>
  <path class="selected" d="m732.37,704.15c9.37,-12.88 17.77,-26.11 25.62,-39.49c-54.04,-1.79 -140.18,-59.62 -256.49,-172.35l-0.04,-0.04l-0.17,-0.19c-115.07,-113.18 -173.89,-197.95 -175.34,-252.23c-13.57,7.73 -27.01,15.98 -40.11,25.18c13.53,64.32 73.24,147.07 185.01,257.02c137.53,133.29 214.25,172.29 261.52,182.1z" data-spm-anchor-id="a313x.search_index.0.i1.67af3a816HxXY3" fill="#AA3304" id="svg_3"/>
  <path d="m205.78,782.98c-39.19,-38.55 -80.88,-66.9 -116.12,-81.35c4.14,16.94 9.69,33.37 16.79,49.03c0.09,0.25 0.04,0.45 0.15,0.7c22.59,58.18 -7.36,106.43 7.87,121.39c15.21,14.95 76.08,-14.96 121.9,7.06c0.49,0.26 0.83,0.17 1.32,0.36c16.24,7.19 33.22,12.87 50.78,16.98c-14.72,-34.6 -43.52,-75.62 -82.69,-114.17z" fill="#FB8C00" id="svg_4"/>
  <path d="m776.32,146.97a32.7,32.7 0 0 0 -45.66,0a31.4,31.4 0 0 0 0,44.88c11.52,11.35 5.89,44.38 -4.67,59.59c-19.3,23.59 -46.4,42.22 -59.05,49.15a21.01,21.01 0 0 0 -4.73,33.47c6.61,6.51 17.06,8.21 25.64,3.5c2.56,-1.39 48.72,-27.01 78.27,-67.84l0.02,0c40.36,-43.48 22.79,-110.36 10.18,-122.75z" fill="#BF360C" id="svg_5"/>
  <text fill="#E65100" font-family="Times" font-size="240" id="svg_6" stroke="#000" text-anchor="start" transform="matrix(2.84639 0 0 2.84639 -1798.1 -176.291)" x="1056.46" xml:space="preserve" y="319.64">frynut</text>
 </g>
</svg>