<svg xmlns="http://www.w3.org/2000/svg" width="3000" height="1024" class="icon"><g class="layer"><path fill="#E65100" d="M430.72 196.1c-73.84 20.35-147.29 61.57-209.73 122.96C90.45 447.45 48.57 623.11 106.45 750.66c.09.25.04.45.15.7 22.59 58.18-7.36 106.43 7.87 121.39 15.21 14.95 76.08-14.96 121.9 7.06.49.26.83.17 1.32.36 129.77 57.56 308.89 16.54 439.73-112.15 62.42-61.46 104.32-133.71 124.99-206.31z" class="selected" data-spm-anchor-id="a313x.search_index.0.i0.67af3a816HxXY3"/><path fill="#FFA726" d="m501.46 492.27-.17-.19C384 376.75 324.97 290.78 325.78 236.65c.32-19.6 8.45-29.2 11.95-32.44 91.2-89.71 215.87-70.58 341.56 53.05a503.77 503.77 0 0 1 28.8 30.7c6.55 4.8 25.09 18.84 46.68 40.06 109.7 107.91 124.31 226.09 40.17 324.25-3.35 3.78-12.59 11.88-31.68 12.54-53.65 1.9-141.69-56.15-261.76-172.54z" class="selected" data-spm-anchor-id="a313x.search_index.0.i2.67af3a816HxXY3"/><path fill="#AA3304" d="M732.37 704.15c9.37-12.88 17.77-26.11 25.62-39.49-54.04-1.79-140.18-59.62-256.49-172.35l-.04-.04-.17-.19C386.22 378.9 327.4 294.13 325.95 239.85c-13.57 7.73-27.01 15.98-40.11 25.18 13.53 64.32 73.24 147.07 185.01 257.02 137.53 133.29 214.25 172.29 261.52 182.1" class="selected" data-spm-anchor-id="a313x.search_index.0.i1.67af3a816HxXY3"/><path fill="#FB8C00" d="M205.78 782.98c-39.19-38.55-80.88-66.9-116.12-81.35 4.14 16.94 9.69 33.37 16.79 49.03.09.25.04.45.15.7 22.59 58.18-7.36 106.43 7.87 121.39 15.21 14.95 76.08-14.96 121.9 7.06.49.26.83.17 1.32.36 16.24 7.19 33.22 12.87 50.78 16.98-14.72-34.6-43.52-75.62-82.69-114.17"/><path fill="#BF360C" d="M776.32 146.97a32.7 32.7 0 0 0-45.66 0 31.4 31.4 0 0 0 0 44.88c11.52 11.35 5.89 44.38-4.67 59.59-19.3 23.59-46.4 42.22-59.05 49.15a21.01 21.01 0 0 0-4.73 33.47c6.61 6.51 17.06 8.21 25.64 3.5 2.56-1.39 48.72-27.01 78.27-67.84h.02c40.36-43.48 22.79-110.36 10.18-122.75"/><text xml:space="preserve" x="1056.46" y="319.64" fill="#E65100" stroke="#000" font-family="Times" font-size="240" transform="translate(-1798.1 -176.291)scale(2.84639)">frynut</text></g></svg>